<svg width="23" height="23" viewBox="0 0 23 23" fill="none" xmlns="http://www.w3.org/2000/svg">
<path d="M11.5 0C5.152 0 0 5.152 0 11.5C0 17.848 5.152 23 11.5 23C17.848 23 23 17.848 23 11.5C23 5.152 17.848 0 11.5 0ZM3.60333 10.396C3.60333 8.15734 5.428 6.33267 7.66667 6.33267C9.90533 6.33267 11.73 8.15734 11.73 10.396C11.73 12.6347 9.90533 14.4593 7.66667 14.4593C5.428 14.4593 3.60333 12.6347 3.60333 10.396ZM12.0213 18.5993C10.7487 18.5993 9.522 18.2467 8.44867 17.572L9.50667 15.87C10.258 16.3453 11.132 16.5907 12.0213 16.5907C12.9107 16.5907 13.7847 16.3453 14.5207 15.87L15.5787 17.572C14.5207 18.2467 13.2787 18.5993 12.0213 18.5993ZM13.6927 11.3927V9.384H19.8567V11.3927H13.6927Z" fill="#333333"/>
</svg>
